<svg xmlns="http://www.w3.org/2000/svg" version="1.1" xmlns:xlink="http://www.w3.org/1999/xlink" width="937.72" height="671.41"><svg id="SvgjsSvg1074" xmlns="http://www.w3.org/2000/svg" viewBox="0 0 937.72 671.41">
  <path d="M350.69,7.09c1.04-.45,2.08-.9,3.46-1.49.54,1.44,1.02,2.74,1.51,4.04.3.13.62.41.89.36,2.42-.39,4.4-.55,6.88,1.11,3.55,2.39,8.02,3.37,11.96,5.24,2.63,1.25,5.57,2.61,4.39,6.59,4.42,1.43,8.29,3.16,10.18,7.6.31.72,1.57,1.32,2.47,1.45,2.68.4,4.37,2.08,6.2,3.85,1.8,1.73,2.59,3.26.73,4.95,5.7,4.19,11.38,7.82,13.12,15.08.35,1.48,1.36,3.25,2.6,3.98,4.37,2.56,5.51,7.38,8.23,11.07.56.76-.11,2.42-.22,3.7,2.48,2.08,5.41,3.87,7.43,6.39,3.35,4.17,7.45,7.73,9.66,12.94,1.13,2.67,4.12,4.56,6.48,7.03-.71.44-1.36.84-2.31,1.43,5,2.39,8.65,5.81,12.03,9.79,2.37,2.79,5.03,5.99,9.53,5.46,7,4.44,14.8,1.12,22.14,2.22.78.12,1.77.09,2.42-.3,5.23-3.11,10.83-5.77,13.72-11.7,1.01-2.06,2.61-3.83,3.83-5.8,1.02-1.65,1.91-3.38,2.82-5.1.46-.87.77-1.82,1.24-2.68,1.66-3.04,3.67-5.93,4.94-9.12,1.19-2.99,2.59-5.36,6.3-5.91-.66-6.15,3.44-9.79,6.86-13.81,1.69-1.99,3.41-4.02,4.73-6.26,2.42-4.11,5.16-7.67,9.98-9.17.99-.31,2.14-1.3,2.49-2.24,2.2-5.96,9.01-7.35,12.09-12.43.41-.68,1.73-.82,2.65-1.16.77-.29,1.91-.26,2.28-.79,3.47-5.01,9.56-6.33,13.95-10.03.71-.6,1.78-1.07,2.69-1.09,2.81-.04,5.25-.68,7.08-3,.38-.48,1.07-.78,1.67-.99,5.46-1.88,10.85-4.1,16.45-5.45,3.38-.81,6.75-2.92,9.84-2.71,3.9.27,7.55-.34,11.29-.7,1.63-.16,3.22-.65,4.84-.88,1.47-.2,3.26-.85,4.39-.27,5.11,2.61,10.34.32,15.41.85,5.99.62,12.29-1.7,17.99,1.73.41.25,1.03.62,1.36.48,3.66-1.5,6.2,1.12,9.23,2.19,2.89,1.02,6.1,1.13,9.16,1.67,3.23.57,6.55.87,9.67,1.82,5.02,1.53,9.91,3.51,14.86,5.29.94.34,1.89.86,2.84.89,6.13.15,10.93,2.96,15.66,6.66,4.58,3.58,9.84,6.27,15.24,8.8.96,2.21,1.92,4.41,2.9,6.68,3.71.66,8.05.24,10.03,4.79,6.57,3.63,8.71,10.93,13.14,16.32,4.6,5.59,8.35,12.09,11.66,18.67.89,1.77,1.41,3.72,2.12,5.58,1.47,3.85,2.91,7.71,4.46,11.52,2.23,5.46,3.4,11.1,4.08,16.99.33,2.85.38,5.7.73,8.54.14,1.12.13,2.68.83,3.24,3,2.42,2.74,5.55,2.2,8.69-.86,5-.27,9.97.74,14.78.87,4.18.56,7.86-1.64,11.59.5,1.11.95,2.34,1.57,3.47,1.61,2.96,3.23,5.77,7.46,5.39,1.31-.12,2.93.78,4.07,1.65,3.02,2.32,5.53,5.47,8.82,7.22,5.68,3.03,9.44,8.82,15.95,10.56,3.66.98,5,4.1,5.8,7.41,3.53.77,7.31.71,8.54,5.02.17.59,1.36.84,1.99,1.35,3.66,2.94,6.85,6.45,10.98,8.85.74.43.91,1.75,1.53,2.51,1.35,1.67,2.52,3.99,4.3,4.71,3.93,1.57,6.22,4.88,9.26,7.36,1.15.94,2.66,1.98,3.02,3.26,1.13,4.03,3.02,7.07,7.03,8.93,1.3.6,1.61,3.06,2.72,4.37,1.95,2.3,4.41,4.17,6.2,6.57,2.25,3.01,3.55,6.85,6.13,9.46,5.6,5.68,8.33,13.11,12.45,19.63,3.48,5.51,7.26,11.57,7.3,18.72,2.23,1.41-.23,4.06,1.8,5.98,1.59,1.5,1.86,4.4,2.73,6.68.82,2.17,1.44,4.46,2.55,6.47,1.1,1.98.64,3.46-.05,4.23,1.11,4.18,2.25,7.71,2.96,11.32,1.14,5.81,2.25,11.66,2.9,17.54.41,3.74-.02,7.58-.09,11.38-.01.66-.29,1.38-.1,1.97,1.75,5.54-.47,10.83-1.1,16.18-.46,3.9-1.74,7.71-2.59,11.57-.14.62-.23,1.52.1,1.92,2.94,3.47.07,6.65-.44,9.91-.15.94-1.24,1.86-1.13,2.69.66,4.79-1.33,8.73-3.58,12.66-.4.7-.6,1.57-.66,2.38-.45,6.85-4.09,12.24-8.23,17.25-1.62,1.96-2.36,3.85-2.33,6.26.01,1.48.18,3.14-.4,4.41-2.65,5.86-4.68,12.08-9.21,16.92-.23.24-.54.43-.7.71-1.27,2.12-2.17,4.62-3.88,6.28-1.51,1.45-3.93,1.96-6.3,3.05,2.68,3.82.92,6.51-1.5,9.02-5.35,5.54-10.73,11.06-16.11,16.58-.11.12-.4.2-.39.28.45,4.61-4.27,5.52-6.13,8.52-3.13,5.04-6.65,9.93-11.88,13.02-2.51,1.48-4.21,3.87-6.82,5.18-.98.49-2.35,1.5-2.4,2.34-.22,3.84-3.23,4.75-5.84,6.1-1.93,1-4,1.76-4.62,4.2-.07.29-.36.7-.61.75-4.15.79-5.37,4.89-8.17,7.18-2.82,2.31-5.84,4.38-9,6.71-.85-.57-1.73-1.16-2.78-1.86-.26.6-.68,1.08-.58,1.39.93,2.81-.17,4.38-2.82,5.37-2.01.75-3.82,2.06-5.86,2.7-1.59.5-3.38.34-5.46.5.69,3.63-2.27,4.78-4.84,6.7-4.96,3.71-11.32,4.85-15.83,9.59-2.07,2.17-6.15,2.44-9.83,3.75-.08.21-.43,1.09-.9,2.28-1.14-.46-2.14-.87-3.48-1.42-1.66,1.71-3.47,3.3-6.61,1.92-2.52-1.11-3.35-.25-3.54,2.65-.2,2.94-1.51,4.8-4.27,6.07-3.3,1.52-6.46,3.39-9.5,5.37-4.49,2.93-9.3,5.11-14.36,6.82-5.81,1.96-11.68,3.76-17.4,5.96-3.39,1.31-6.49,3.36-9.8,4.88-2.06.94-4.26,1.59-6.43,2.24-1.73.51-3.58.66-5.28,1.26-7.96,2.85-15.82,6-23.85,8.64-6.25,2.05-12.87,3.06-19.01,5.36-5.55,2.08-11.62,2.76-16.71,6.12-1.07.7-2.48.98-3.77,1.23-6.5,1.23-13.06,2.2-19.5,3.66-2.57.58-4.55.74-6.12-1.98-1.12,1.55-2.2,3.92-2.83,3.81-4.47-.82-8.24,2.19-12.46,1.93-1.74-.11-3.43-.99-5.09-1.51-2.77,4.47-10.19,5.34-15.43,5.23-4.01-.09-8.05,1.11-12.07,1.8-1.76.3-3.49.78-5.24,1.14-.31.06-.75-.19-.98-.05-6.55,3.93-14.37.49-21.15,3.75-3.02,1.45-6.2.28-8.29-2.33-3.51,2.12-7.21,3.9-11.28,2.86-3.4-.87-6.33-.22-9.52.71-3.45,1.01-7.08,1.47-10.66,1.96-2.45.33-4.94.3-7.41.46-.83.06-1.78.55-2.45.29-5.93-2.32-11.12,1.01-16.65,1.83-3.29.49-6.93-.17-10.18-1.12-1.67-.48-2.84-.82-4.57-.28-3.51,1.09-7.07,1.14-10.82.52-3.67-.61-7.55-.31-11.3.01-3.54.3-6.77-.46-10.15-1.3-2.95-.73-6.35.36-8.74-2.72-5.71,4.04-12.12,1.63-18.09,2.7-.32.06-.74.07-.98-.09-3.88-2.65-8.27-1.47-12.47-1.88-2.64-.26-5.15-1.76-8.46-2.96-1.46,1.08-3.54,2.63-6.68.72-1.6-.97-4.26-.65-6.34-.29-5.01.88-9.55-.17-13.93-2.47-.58-.31-1.21-.69-1.84-.73-4.09-.27-8.19-.64-12.28-.62-3.2.01-6.24-.93-9.6-.53-2.53.31-5.38-2.05-8.91-3.58-5.06.63-11,1.34-17-1.39-3-1.37-6.76-.96-10.12-1.65-3.21-.66-6.37-1.63-9.48-2.66-.44-.15-.52-1.4-.81-2.29-6.14,1.76-11.87.16-17.16-3.05-1.44-.87-2.5-1.13-4.07-.9-3.81.56-7.12-.2-10.87-1.92-5.89-2.71-11.58-6.44-18.42-6.98-1.45-.12-2.79-1.56-4.57-2.63-3.49,1.32-7.1-.28-10.39-2.14-4-2.25-8.11-3.77-12.65-4.2-4.72-.45-7.91-3.98-11.81-6.04-1.32-.7-2.29-1.56-3.91-1.41-.74.07-1.73-.24-2.27-.74-1.62-1.49-3.25-2.08-5.59-2.37-2.15-.26-4.02-2.85-6.54-4.82-1.67-.48-4.34-.84-6.62-1.97-6.2-3.05-12.51-5.92-18.26-9.81-.82-.55-1.6-1.36-2.5-1.56-3.02-.67-3.93-2.7-3.65-5.61-4.79-2.14-9.39-4.2-14.42-6.44.48-1.99-1.51-2.45-3.6-2.67-4.02-.41-6.64-2.61-7.93-5.48-2.2-1.06-4.35-1.44-5.33-2.71-1.38-1.8-2.7-2.79-5.18-2.14v-3.72c-5.26-1.65-9.53-4.88-13.61-8.91-4.02-3.97-8.32-7.43-10.09-12.93-6.85-1.44-10.42-6.48-13.78-11.78-.33-.52-.62-1.3-1.1-1.48-3.58-1.33-5.51-4.41-8.11-6.88-3.91-3.71-6.27-8.53-10.06-12.19-3.17-3.06-2.79-7.58-4.87-11.06-.75-1.25-1.25-3.35-2.26-3.62-2.92-.8-3.98-2.6-4.35-5.29-.09-.63-.39-1.46-.86-1.76-3.41-2.14-3.59-6.09-5.14-9.23-.95-1.92-1.06-4.26-1.71-7.15-1.79-.66-3.4-2.47-3.54-5.52-.05-1.04-.91-2.09-1.53-3.06-1.88-2.95-2.8-6.31-4.15-9.43-1.71-3.93.08-8.76-3.54-11.93.91-3.06-1.46-5.28-2.04-7.96-.25-1.13-.81-2.46-.45-3.39,1.15-2.94.53-5.31-.94-7.99-.66-1.2.36-3.33.71-5.63-.38-.27-1.24-.88-2.1-1.49,1.23-3.72.86-6.41-.69-10.49-.6-1.58-.39-3.53-.25-5.29.18-2.29.46-4.61,1.08-6.81.83-2.94.26-5.65-.29-8.53-.39-2.05-.14-4.37.39-6.42,1.9-7.28,2.44-14.81,4.32-22.08.35-1.35,1.41-2.51,2.38-4.14-2.59-3.2.48-5.95,1.51-9.09,1.26-3.81,4.05-7.15,3.09-11.68-.3-1.41.59-3.27,1.37-4.69,2.14-3.89,4.05-8.06,6.95-11.3,1.9-2.12,4.22-3.96,5.81-6.4.57-.88,1.22-2.69.86-3.02-1.97-1.82-.79-3.37.17-4.85,4.99-7.73,9.87-15.5,15.92-22.52,2.76-3.21,4.5-7.3,6.65-11.03,1.18-2.05,7.82-8.14,9.86-9.33,1.17-.68,2.66-1.84,2.85-2.98.41-2.47,1.9-4.22,3.71-5.01,4.49-1.97,6.89-5.93,9.98-9.26,2.8-3.02,5.6-6.04,8.46-9.01.42-.44,1.11-.68,1.71-.88,2.57-.86,4.37-2.22,5.63-4.91,1.44-3.07,3.79-5.5,7.26-7.05,4.15-1.85,7.85-4.74,11.75-7.17,1.12-.69,2.2-1.73,3.41-1.93,3.74-.62,4.59-3.2,5.07-6.35.57-3.74,1.38-7.44,1.98-11.17.12-.73-.31-1.53-.39-2.31-.11-1.11-.57-2.44-.13-3.29,1.36-2.64.9-4.81-1.26-6.47,1.98-3.48,3.84-6.5,5.4-9.66.39-.8.21-2.5-.39-3.06-1.67-1.57-1.02-2.94-.25-4.48,2.49-4.94,4.99-9.88,7.42-14.85.43-.87.64-1.88.76-2.86.6-4.77.23-9.73,3.94-13.72,1.14-1.23,1.47-3.33,1.87-5.09.77-3.42.68-3.44,3.87-5.32-.03-.49-.02-1.11-.11-1.72-.07-.48-.27-.94-.49-1.7,5.04-3.03,6.28-8.41,8.05-13.5.37-1.08.97-2.13,1.67-3.03,2.33-3,4.86-5.86,7.12-8.91,1.9-2.58,3.86-4.95,7.62-5.23-.96-3.06-.67-5.36,1.64-7.44,1.54-1.39,2.32-3.6,3.59-5.34.65-.89,1.5-2,2.46-2.25,3.29-.86,4.92-3.25,5.72-6.12.75-2.67,2.44-4.18,4.59-5.59,1.19-.78,2.71-1.88,2.97-3.07.85-3.95,3.48-5.36,7.17-5.74.69-2.55,1.55-4.89,4.49-5.42.46-.08,1.16-.37,1.27-.71,1.61-4.98,6.83-6.51,9.82-10.31,2.89-3.68,7.37-6.12,11.25-8.97.72-.53,1.94-.73,2.86-.61,4.13.54,6.87-1.81,9.6-4.31,1.96-1.79,3.89-3.64,5.98-5.26,2.48-1.92,5.14-3.31,8.29-4.27,4.18-1.26,7.97-3.82,11.93-5.84.73-.37,1.73-1.31,2.1-1.1,4.44,2.55,7.52-1.21,10.93-2.54,2.53-.99,4.58-1.62,6.87-.03,1.8-1.48,3.31-3.68,5.07-3.9,1.62-.21,3.51,1.71,5.32,2.72,3.12-4.65,8.32-3.3,13.13-3.99.2,1.82.34,3.16.63,5.78,5.2-6.85,12.19-6.52,18.63-7.51,4.27-.65,8.46-.1,12.52,2.16,2.63,1.46,6,1.61,9.05,2.28,2.22.49,4.76.15,6.21,2.52-.47,0-1.04-.15-1.38.07-.4.26-.59.83-.87,1.27.52-.06,1.13.02,1.52-.23.33-.21.41-.81.6-1.23ZM884.71,325.24c1.16.34,2.38.99,3.46-.63-1.72-1.4-2.73-1.11-3.37.76-1.18-.81-2.34-1.17-3.43.18q1.64,1.22,3.34-.31ZM171.55,182.22q-.34-2.4-2.72-1.19c1.16.44,2.01.75,2.85,1.07,1.4,6.55-.32,12.35-4.4,17.72,2.72,3.11.38,6.08-.11,9.24-1.18.1-2.13.19-3.37.3.67.92,1.05,1.47,1.45,1.98,2.14,2.74,2.21,5.29-.25,8.02-1.42,1.57-2.73,3.47-3.39,5.45-.9,2.65-3.19,4.25-5.09,4.15-4.27-.24-6.06,3.21-9.76,4.67,2.36,1.79,2.38,3.52,1.06,5.44-1.35,1.94-2.45,4.06-3.89,5.92-.95,1.23-2.14,2.45-3.49,3.14-4.09,2.09-5.56,4.52-4.94,9.08-2.31,2.04-4.36,4.71-7.07,6-3.28,1.57-7.57,1.48-7.32,6.73-2.53,1.07-3.5,3.55-5.17,5.42-4.05,4.52-8.69,8.5-12.96,12.82-1.83,1.85-3.65,3.29-7.97,1.7,3.25,4,1.02,5.35-.69,7.32-4.52,5.22-8.66,10.76-12.94,16.18-.1.12-.07.34-.16.47-3.23,4.77-6.38,9.59-9.73,14.27-2.11,2.95-4.35,5.59-4.94,9.52-.47,3.09-2.48,5.95-3.72,8.74-1.88-.33-3.33-.58-4.74-.85,1.04-1.23,1.85-2.54.09-3.74-.45-.31-1.34.03-2.66.11,1.15,1.56,1.9,2.57,2.65,3.58-.33,1.58-.66,3.16-.98,4.74,1.09.4,2.09.77,2.68.99-.35,3.14-.29,5.94-1.03,8.51-1.38,4.76-3.4,9.34-4.81,14.09-1.08,3.62-1.62,7.4-2.43,11.1-.51,2.32-1.09,4.63-1.46,6.19.53,3.27,1.27,5.94,1.34,8.63.11,4.45-.45,8.91-.3,13.36.23,6.77.3,13.61,3.19,19.99.67,1.48,1.84,3.38,1.41,4.61-1.57,4.49-.36,8.05,2.56,11.39.2.23.17.64.29.95,2.21,6.01,3.63,12.44,8.99,16.8.54.43.54,1.52.8,2.3.31.94.35,2.34,1,2.73,3.12,1.89,3.71,5.34,5.45,8.07,1.38,2.16,2.36,4.19,2.24,6.88-.14,3.16.75,4.23,3.93,4.65,2.13.28,3.28,1.12,4.1,2.99.37.86,1.17,1.68,1.98,2.16,2.56,1.49,3.79,3.62,3.45,6.43,4.81,2.17,6.76,3.84,9.89,8.32.47.67.89,1.51,1.56,1.87,6.77,3.63,11.05,10.19,17.37,14.51,4.63,3.16,10.26,5.67,13.17,11.1.27.51,1.03.9,1.64,1.05,3.3.81,6.37,1.88,8.2,5.12.33.58,1.39.79,2.14,1.09,1.67.67,3.34,1.38,5.05,1.93,5.43,1.73,8.73,6.94,14.26,8.59,2.45.73,4.64,1.96,6.71,3.89,2.12,1.98,5.58,2.53,8.47,3.67,1.07.42,2.23.62,3.26,1.1,4.02,1.91,8.11,3.72,11.98,5.89,4.3,2.41,9.56,4.05,10.02,10.28.01.16.55.29.81.42,1.53-.79,3.11-2.35,4.54-2.21,3.75.34,7.36,1.28,10.88,3.11,3.3,1.72,6.18,4.52,10.4,4.66,1.91.06,3.77,1.74,5.66,2.69-1.82.22-4.04-1.02-5.37,1.61,1.63,2.78,3.86,1.93,6.49,1.24-.53-1.23-.9-2.11-1.28-2.99,9.39-.5,17.11,4.66,25.35,7.85,2.74,1.06,4.74,1.42,7.07-.07,1.38,1.07,2.48,2.12,3.75,2.85,1.09.63,2.51,1.45,3.59,1.23,4.16-.84,7.85.8,11.68,1.74,1.27.31,2.52.74,3.81,1.01,8.76,1.85,17.53,3.66,26.3,5.49,1.62.34,3.24.65,4.84,1.08,6.49,1.75,13.79-.84,19.77,3.69.22.17.63.07.96.1,3.02.29,6.08.32,9.03.93,2.45.51,4.76,1.69,8.04,2.91,3.03-1.34,7.17-1.68,11.5-.53,1.7.45,3.6.17,5.41.18,3.62.02,7.24-.14,10.85.06,4.59.25,9.15.93,13.74,1.14,5.42.25,10.86.19,16.29.28,2.48.04,5.02.44,7.43.07,5.16-.78,10.21-.2,15.27.52,3.77.54,7.29.92,11.11-.75,5.31-2.32,11.54-1.96,16.63-.33,7.62,2.43,14.7,1.38,21.71-.6,4.66-1.32,9.12-1.29,13.73-1.15,4.26.12,8.51,1.08,12.7-1.02,1.51-.76,3.73-.83,5.4-.39,3.62.97,7.03.18,10.08-1.25,5.42-2.54,11.28-2.24,16.9-3.01,6.79-.93,13.62-1.21,19.93-4.27.73-.35,1.59-.5,2.41-.58,5.13-.51,10.27-.95,15.41-1.48,2.88-.29,5.74-.71,9.28-1.15.41.23,1.54.83,2.65,1.44.72-1.18,1.1-2.67,1.92-2.97,3.41-1.27,6.94-2.19,10.43-3.24l8.82-2.15c3.56-1.69,7.13-3.2,11.24-2.84,1.06.09,2.2-.48,3.28-.85.91-.31,1.94-1.28,2.63-1.06,2.79.87,4.76-.81,6.99-1.77,1.51-.65,3.01-1.4,4.59-1.85,4.7-1.32,9.47-2.38,14.13-3.82,1.68-.52,3.04-2.03,4.69-2.72,6.97-2.87,14.37-4.52,21.22-7.79,6.08-2.91,12.41-5.28,18.63-7.9,2.13-.9,4.39-1.58,6.37-2.74,5.12-3.03,10.5-5.45,16.1-7.44,4.36-1.55,8.36-3.74,12.37-6.2,5.24-3.22,10.98-5.62,15.52-9.96.46-.44,1.22-.53,1.77-.89,1.18-.78,2.31-1.64,3.47-2.45.94-.65,1.83-1.39,2.85-1.88,5.02-2.42,11.15-2.99,14.19-8.72.32-.6,1.46-.73,2.16-1.17,4.47-2.77,9.1-5.3,13.32-8.41,4.11-3.03,7.73-6.71,11.65-9.99,3.16-2.65,6.33-5.31,9.72-7.63,2.75-1.88,4.85-3.91,6.24-6.59.56-1.09,1.67-1.95,2.67-2.74,2.33-1.85,5.86-3.14,6.82-5.51,1.06-2.6,2.8-3.99,4.6-5.43,3.29-2.65,5.62-6.01,8.11-9.32,2.81-3.74,6.03-7.17,9.62-11.39.12-4.45,2.84-8.59,7.03-11.94.75-.6,1.99-1.23,2.06-1.94.41-4.12,2.34-7.5,4.46-10.91,3.55-5.7,4.5-12.84,9.66-17.69.31-.29.45-.86.5-1.31.77-7.23,2.99-14.16,4.19-21.32,1.69-10.11,3.9-20.08.84-30.3-.32-1.06,0-2.32.03-3.48.02-1.33.12-2.66.04-3.98-.28-4.62-.56-9.23-.97-13.84-.15-1.61-.36-3.37-1.14-4.72-1.66-2.86-2.68-5.69-1.79-8.04-1.4-2.69-2.49-4.64-3.44-6.66-.55-1.17-.87-2.46-1.34-3.68-1.18-3.1-2.16-6.32-4.82-8.59-.42-5.79-4.82-9.57-7.21-14.36-.29-.58-.21-1.37-.55-1.91-2.71-4.35-4.65-9.68-8.44-12.72-4.89-3.93-7.52-9.5-12.22-13.48-3.72-3.15-6.37-7.58-9.51-11.42-.3-.37-.7-.71-1.13-.92-2.84-1.42-6.57-1.84-6.74-6.18-3.91-.57-5.43-4.46-8.59-6.18-2.58-1.4-4.74-3.56-7.16-5.28-3.46-2.47-5.91-6.22-10.03-7.87-1.92-.77-3.8-1.63-5.66-2.54-1.48-.72-2.89-1.57-4.33-2.36-3.11-1.72-6.35-3.25-9.31-5.19-5.09-3.33-10-6.94-15.03-10.38-.51-.35-1.3-.23-1.94-.42-4.26-1.32-7.8-3.45-9.99-7.64-1.65-3.17-2.24-6.89-5.16-9.46-.83-.73-.98-2.48-1.04-3.78-.21-4.42-.19-8.85-.35-13.27-.18-5.11,1.41-10.01,1.07-15.25-.31-4.91,1.33-9.94,2.16-15.22-.96-2.17-2.66-4.77-3.21-7.6-.97-4.92-.9-10-2.79-14.8-1.33-3.37-.74-7.29-3.41-10.4-2.12-2.46-4.12-5.29-5.19-8.31-2.14-6.02-7.32-10.18-9.27-16.23-.13-.4-.7-.67-1.09-.97-4.33-3.3-8.78-6.46-12.95-9.95-1.99-1.67-3.82-2.43-6.33-1.67-2.55.77-4.72-.05-5.95-2.37-.82-1.56-1.94-1.94-3.5-2.29-5.48-1.23-10.99-2.44-16.33-4.14-4.64-1.47-9.27-2.46-14.12-2.82-5.94-.44-12.01-.7-17.74-2.14-5.65-1.42-10.78-.86-16.05.93-.78.26-1.61.48-2.43.5-6.06.19-11.85.86-17.56,3.62-3.39,1.64-6.9,3.15-9.98,5.24-4.87,3.31-10.41,5.56-14.66,9.91-3.07,3.14-6.91,5.53-10.37,8.3-.48.39-.66,1.14-1.06,1.66-1.66,2.18-3.62,4.18-3.82,7.14-3.45,1.44-3.83,5.25-5.93,7.76-2.1,2.51-4.61,4.75-5.28,8.48-.27,1.49-2.39,2.85-2.21,5.1.05.68-.68,1.49-1.18,2.14-2.31,2.97-4.69,5.9-7.01,8.86-.4.5-1.04,1.15-.96,1.64.63,4.18-2.41,6.91-4.33,9.77-3.24,4.81-6.69,9.91-13.53,10.21.21,1.65.39,3.04.56,4.34-1.66.76-3.22,1.13-4.32,2.04-4.13,3.41-8.73,5.76-13.69,7.84-7.35,3.08-14.99,5.07-22.72,6.12-5.03.69-10.36-.32-15.61-.21-4.54.09-9.11-2.16-13.66-2.11-8.74.11-15.1-5.47-22.51-8.44-4.35-1.75-7.43-5.94-12.09-7.53-1.53-.52-2.93-1.61-4.2-2.66-2.29-1.89-3.65-4.89-5.62-6.65-2.29-2.05-4.78-3.89-6.66-6.4-.49-.65-.92-1.36-1.47-1.96-2.51-2.79-5.16-5.46-7.57-8.34-3.25-3.9-4.16-9.41-8.62-12.56-.5-.35-.11-1.82-.39-2.68-.58-1.79-1.33-3.52-1.91-5-1.93-.42-3.36-.74-3.89-.86-1.99-3.19-3.54-5.67-5.07-8.16-2.22-3.59-3.85-7.76-6.76-10.65-5.43-5.38-8.45-12.6-14.43-17.54-3.2-2.64-5.3-6.6-8.47-9.29-3.49-2.95-7.39-5.77-11.6-7.38-2.37-.91-4.47-1.46-5.3-3.1-4.12-.71-7.69-.98-11.04-1.98-3.52-1.06-7.27,1.85-10.58-1.38-2.54,3.84-5.94,4.15-9.82,3.56-1.7-.26-4.09-.23-5.21.76-2.89,2.54-6.07,3.1-9.65,3.11-1.26,0-2.57.53-3.78,1.01-7.24,2.87-14.44,5.84-21.69,8.69-2.46.97-4.91,1.66-6.75,3.91-1.05,1.29-2.99,1.87-4.56,2.73-1.3.71-3.01,1.04-3.88,2.08-3.45,4.12-8.89,6.09-11.61,11.01-.55,1-2.18,1.37-3.22,2.15-1.85,1.38-4.2,2.51-5.3,4.37-1.55,2.63-4.08,4.32-5.6,6.72-2.74,4.31-8.4,5.74-10.16,11.01-.48,1.45-2.66,2.27-3.89,3.54-2.63,2.71-2.89,7.49-7.48,8.57-.33.08-.39,1.17-.62,1.78-.36.93-.52,2.07-1.17,2.71-3.08,3.02-3.33,8.12-7.61,10.24-.39.19-.81.78-.82,1.2-.13,4.54-3.49,7.76-4.78,11.81-.29.9-.78,2.24-1.44,2.42-2.5.7-2.29,2.81-2.34,4.44-.09,2.83-.99,5.2-2.8,7.25-1.79,2.01-3.71,3.9-5.76,6.02.84,1.21,1.84,2.66,3,4.34-1.46,1.6-2.77,3.04-4.21,4.62,1.11,1.79.82,3.44-.7,4.86ZM219.48,66.04c-.97,2.47-1.51,4.33-.24,6.81.88,1.72.17,4.25.17,7.51,3.51-3.29,3.57-6.73,3.52-10.21-.03-2.08-.21-4.03-3.46-4.1ZM194.68,87.9c3.01,1.59,4.64.21,6.88-1.31-1.32-1.24-2.39-2.26-3.94-3.72-1.2,2.05-2.01,3.45-2.94,5.04ZM187.22,94.56c-1.24-2.39-2.5-3.36-4.4-1.66-1.1.98-2.3,2.42-.57,3.63,2.23,1.56,3.39-.55,4.97-1.97ZM97.04,265.62q2.62,3.96,6.44,2.88c-2.69-.63-2.48-4.93-6.44-2.88ZM856.49,249.46c.74,2.83,2.92,1.37,4.3,1.28,1.58-.1,3.07-.93,2.47-3.24-2.34.68-4.44,1.28-6.77,1.96ZM37,313.18c2.25-1.11,3.4-1.68,4.55-2.25-.05-.39-.1-.78-.16-1.16-1.12-.15-2.34-.6-3.33-.31-.47.14-.52,1.7-1.06,3.72ZM32.4,339.7q-2.76,2.22,0,4.49v-4.49ZM174.68,126.09q-4.31-1.47-5.29,1.57c1.75-.52,3.13-.93,5.29-1.57ZM15.18,416.3c2.2,1.26,3.64,2.44,5.82.68-1.64-1.6-3.04-2.51-5.82-.68ZM207.19,56.25c-1.34-.11-2.68-.21-4.6-.36,1.53,3.11,2.91,3.1,4.6.36ZM27.53,333.03c.37-.12.74-.24,1.11-.35-.18-.93-.36-1.87-.54-2.8-.57.19-1.15.37-1.72.56.38.86.76,1.73,1.15,2.59ZM154.63,603.04c-.36.41-.73.81-1.09,1.22l1.9,2.15c1.58-2.72.59-3.2-.81-3.37ZM203.84,84.05l-.91.47c.36.68.72,1.37,1.13,2.02.02.03.54-.25.83-.39-.35-.7-.7-1.4-1.05-2.1ZM150.42,157.11c-1.04-.43-1.54-.79-2.02-.77-.32.02-.93.74-.86.89.22.48.67,1.1,1.09,1.15.39.05.86-.58,1.79-1.27ZM857.47,255.33c-.25-.34-.5-.68-.75-1.01-.62.55-1.23,1.09-1.85,1.64l.59.71c.67-.44,1.34-.89,2.01-1.33ZM921.28,432.99c-.47.89-1.03,1.47-.92,1.85.13.45.85.99,1.3.99.34,0,.95-.81.94-1.25,0-.42-.66-.83-1.33-1.59ZM359.03,60.18c-.36.53-.84.92-.79,1.23.05.38.55.7.86,1.04.3-.32.86-.64.85-.95-.01-.38-.49-.75-.92-1.32ZM893.24,304.61c-.34.43-.84.78-.8,1.08.04.33.55.61.86.91.36-.38.72-.76,1.09-1.13-.34-.26-.68-.51-1.14-.86ZM455.18,664.87c-.15-.36-.25-.62-.36-.88-.38.16-.89.24-1.08.53-.12.18.23.68.38,1.04.36-.23.72-.46,1.06-.68Z"></path>
  <path d="M279.99,285.43c4.19-2.58,7.06.71,10.2,2.53.84.49,1.11,1.97,1.85,3.39,2.67-.83,5.25.73,7.48,2.69,3.72,3.26,7.25,6.74,10.78,10.2.68.66,1.22,1.6,1.5,2.51.53,1.77,1.72,2.58,3.29,3.42,3.54,1.88,5.66,4.87,5.8,9.07.03.76.27,1.75.79,2.2,5.46,4.72,8.31,10.93,10.33,17.66.22.75.78,1.51,1.39,2.01,2.14,1.75,3.17,3.71,2.19,6.56-.25.75.33,1.92.8,2.74,1,1.73,2.36,3.25,1.07,5.48-.26.44.18,1.63.67,2.1,1.64,1.57,1.39,3.49.72,5.12-1.6,3.88-.65,7.54.16,11.35.45,2.14.98,4.37-1.31,6.38-1.05.92-.78,3.34-1.16,5.38,1.18.31,2.07.55,2.98.79,0,.27.1.63-.02.88-1.35,3.02-2.14,5.93-1.97,9.48.17,3.61-1.33,7.43-2.74,10.9-.56,1.37-1.74,2.24-.63,3.8.14.2.07.7-.09.95-3.29,5.15-4.22,11.31-7.16,16.61-.24.43-.88.86-.82,1.2.68,3.86-.64,6.46-4.48,7.69-.36.12-.59.77-.8,1.21-2.28,4.75-4.03,9.86-6.98,14.15-2,2.9-5.68,4.64-8.83,7.06-1.09,4-1.98,8.53-7.29,9.95-.57.15-1.32.71-1.45,1.22-.84,3.28-3.51,3.97-6.19,5.08-1.86.76-3.76,2.34-4.78,4.07-2.52,4.3-6.46,6.57-10.65,8.67-3.24,1.63-6.46,3.3-9.69,4.95-.3.15-.55.39-.86.51-5.17,2-10.34,4.02-15.53,5.98-2.78,1.05-5.6,1.98-8.38,3.03-1.88.71-3.67,1.55-5.72.42-.45-.25-1.58-.08-1.82.28-1.54,2.32-3.84,1.46-5.9,1.58-2.8.16-5.39.72-8.1,1.75-3.32,1.25-7.17,1.2-10.81,1.47-3.13.22-6.31.33-9.42.03-1.95-.18-3.82-1.2-6.58-2.12-4.63,2.34-9.81,1.52-14.6-2.5-.88-.74-1.98-1.73-2.97-1.73-4.98,0-8.97-2.66-13.19-4.65-3.44-1.62-6.68-3.65-10.06-5.4-1.87-.97-3.95-1.56-5.74-2.65-1.16-.71-1.98-1.98-2.9-3.05-.93-1.08-1.66-2.98-2.73-3.18-4.1-.75-5.47-3.91-7.29-7.11.78-1.19,1.55-2.37,2.35-3.6-2.59-2.27-6.56-.62-8.86-3.61-1.82-2.37-4.12-4.37-6.56-6.9.07-.44.34-1.39.37-2.34.11-3.62-.42-6.74-4.23-8.73-1.87-.98-3.55-3.06-4.45-5.04-1.83-4.06-3.08-8.38-4.64-12.81.9-.64,1.53-1.09,2.17-1.54,1.89-1.34,1.63-2.99.08-4.11-3.6-2.6-6.02-5.6-5.01-10.35-3.28-4.99.38-10.35-.76-15.53-.32-1.47,1.53-3.3,1.62-5.01.08-1.65-1.21-3.36-1.21-5.04.02-4.58,1.6-8.76,3.74-12.8.72-1.36,1.15-3.13,1.02-4.66-.33-4.02,1.07-7.49,2.73-10.95.36-.75.85-1.45,1.1-2.23,1.55-4.72,1.54-4.73,6.02-4.89.47-1.11,1-2.21,1.36-3.36.21-.65.45-1.63.13-2.05-1.79-2.34-.54-4.24.51-6.35,1.01-2.02,1.86-4.17,2.41-6.35.89-3.49,3.88-4.84,6.4-6.62,1.19-.84,2.7-1.22,4.15-1.84-1.51-3.86-.32-7.16,2.35-9.84,3.13-3.15,6.48-6.11,9.86-8.99,4.42-3.76,8.91-7.43,13.5-10.98,1.69-1.31,3.74-2.14,5.62-3.21.86-.49,2.13-.82,2.46-1.56,2.28-5.01,6.84-6.1,11.53-7.21,1.9-.45,3.74-1.31,5.48-2.22,3.59-1.9,6.99-4.21,10.67-5.9,7.62-3.51,16.07-3.88,24.1-5.83.64-.16,1.41.01,1.97-.26,5.68-2.77,11.59-3.43,17.21-.5,3.58,1.87,6.78.04,10.14.31,4.26.33,8.47.69,12.52,2.19.87.32,1.91.21,2.88.24.65.02,1.61-.35,1.91-.04,4.14,4.25,11.15,3.28,14.97,8.43ZM278.43,343.27c.13-.6.25-1.2.47-2.24-1.99-.11-3.71-.21-5.42-.3-.06.48-.12.96-.18,1.45l5.26.97c-1.08,1.18-2.17,2.36-3.22,3.5,2.32,4.67,6.6,8.92,9.45,9.39-2.47-3.52-5.16-6.89-5.03-11.53.01-.4-.87-.82-1.34-1.23ZM193.77,323.06c.07.41.14.82.21,1.22,2.11.44,4.32.93,6.14-.81.55-.53.3-1.88.5-3.55-1.8.91-2.79,1.45-3.81,1.92-.99.45-2.02.82-3.04,1.22ZM268.77,334.99c5.32-.87,5.67-1.21,5.51-4.89-3.22.11-2.83,4.27-5.51,4.89ZM268.17,428.36q2.47-3.81-1.18-5.1c.37,1.58.65,2.81,1.18,5.1ZM121.34,378.01c-.21-.47-.43-.93-.64-1.4-2.12-.61-2.98.68-3.99,3.78,2.18-1.12,3.4-1.76,4.63-2.39ZM110.07,426.3c.26-.12.51-.24.77-.36-.32-.71-.63-1.42-1-2.1-.02-.04-.54.19-.83.29.35.72.71,1.45,1.06,2.17ZM191.49,329.31c.26.32.52.63.78.95.5-.46,1.01-.91,1.48-1.41.02-.03-.45-.63-.5-.6-.61.32-1.17.7-1.75,1.07Z"></path>
  <path d="M594.34,400.84c1.91-4.15,1.52-8.2.15-12.5-.76-2.37-.24-5.15-.27-7.75-.02-1.8.16-3.62-.02-5.4-.73-7.41-.03-9.97,3.81-15.76.29-1.97.5-3.95.91-5.89.34-1.61.92-3.17,1.37-4.76.22-.77.16-1.95.66-2.27,3.14-1.99,3.37-5.53,4.76-8.45.42-.88.72-2,1.43-2.53,2.61-1.93,4.79-4.02,5.32-7.46.1-.66,1-1.3,1.67-1.75,2.39-1.61,4.53-2.83,5.16-6.43.6-3.42,4.55-5,7.69-6.59.67-.34,1.89-.72,1.89-1.09.02-3.34,2.94-4.45,4.95-4.87,3.62-.76,6.5-3.05,9.99-3.84,2.13-.48,3.75-1.12,3.73-3.79,0-.68,1.09-1.75,1.88-1.99,3.4-1.03,6.84-1.94,10.32-2.62.95-.18,2.09.61,3.39,1.05,3.47-4.57,8.36-6.35,13.93-7.49,6.1-1.25,11.98-3.59,17.96-5.44.94-.29,1.93-.71,2.88-.65,7.94.49,15.88.94,23.79,1.72,2.9.28,5.6,1.77,8.73,1.18.8-.15,2.05,1.25,2.85,2.15.58.65.75,1.65,1.43,3.29,1.26-2.12,2.13-3.58,2.99-5.03,3.62.55,7.1.92,8.83,5.1.81,1.97,3.39,2.45,5.27,1.34,2.29-1.35,4.11-.37,6.17.24,5.59,1.66,10.6,4.68,15.9,6.79,6.67,2.65,12.34,6.43,16.94,11.42,2.74,2.97,6.3,4.03,9.2,6.45,5.86,4.88,11.57,9.93,16.81,15.42,2.15,2.26,2.76,5.99,4.91,8.26,4.03,4.26,5.6,9.94,9.29,14.38,2.17,2.61,3.34,6.04,5.01,9.06,1.46,2.65,1.85,5.08-2.19,6.94,2.28,1.66,3.77,2.75,5.51,4.02-.62,2.93.24,5.62,1.53,8.63,1.5,3.5,1.53,7.76,1.64,11.71.13,4.9-.77,9.7.45,14.75.71,2.94-1.43,6.59-2.33,9.91-.41,1.52-1.05,2.98-1.39,4.51-.26,1.12-.1,2.33-.32,3.47-.58,2.96-.83,6.2-5.4,6.48,2.29,3.98,1.35,6.38-1.7,8.95-2.55,2.14-4.2,5.46-5.92,8.45-3.24,5.63-7.58,10.3-12.33,14.62-.93.84-2.26,1.28-3.47,1.76-2.88,1.16-2.9,1.12-2.56,4.91-2.52.72-5.44.6-6.6,4.03-.43,1.27-2.53,1.97-3.84,2.97-1.26.96-2.44,2.02-3.73,2.94-.91.65-1.89,1.25-2.92,1.69-1.97.85-3.95,1.71-6,2.3-2.15.62-4.56.55-6.55,1.47-1.85.85-3.21,2.71-4.94,3.9-.91.63-2.14.89-3.26,1.09-3.94.73-7.88.68-11.32,3.81-1.94,1.77-5.6,1.94-8.55,2.25-5.28.55-10.62.57-15.92.99-13.64,1.08-27.02-.18-40.13-4.14-4.57-1.38-9.17-2.65-13.75-3.98-.48-.14-1.05-.22-1.39-.53-4.39-4.06-10.49-3.74-15.52-6.1-2.71-1.27-6.39-1.22-7.28-5.17-.1-.44-.94-.84-1.51-1.03-5.16-1.73-9.21-5.16-13.35-8.52-3.47-2.82-7-5.57-10.69-8.09-2.22-1.52-4.63-2.56-4.63-5.87,0-.64-1.37-1.24-2.05-1.92-3.52-3.47-7.73-6.32-9.26-11.49-.43-1.44-2.03-2.55-3.14-3.76-.66-.72-1.92-1.26-2.07-2.04-1-5.3-4.98-9.4-5.79-14.75-.08-.53-.43-1.26-.86-1.46-2.75-1.33-3.39-4.06-4.1-6.52-1.01-3.49-1.45-7.13-2.31-10.67-.33-1.38-1.14-2.64-1.74-3.97ZM711.34,446.86c3.08,2.81,6.7,2.98,10.3,2.67,4.22-.36,4.85-1.79,2.98-5.69-.42-.88-.61-1.87-.9-2.81-.6-1.94-1.89-2.4-3.84-2.13-4.79.65-6.88,3.98-8.54,7.96ZM752.25,345.16c-.82,1.13-1.35,1.86-1.87,2.58.62.39,1.3,1.16,1.84,1.07.59-.1,1.37-.93,1.47-1.55.08-.49-.73-1.13-1.44-2.11ZM711.38,497l-.71,1.22c.95.45,1.9.89,2.86,1.34.16-.29.31-.57.47-.86-.87-.57-1.74-1.14-2.61-1.71Z"></path>
  <path d="M471.67,410.57c-1.39,2.72-3.5,3.12-6.26,3.23-4.54.18-8.97.51-13.2-1.51-1.17-.56-2.2-1.38-3.35-1.96-1.44-.73-2.88-1.68-4.42-1.92-4.79-.77-7.9-3.62-10.3-7.55-.25-.4-.44-.93-.81-1.16-3.32-2.06-6.78-3.9-9.97-6.14-3.64-2.55-7.04-5.43-10.55-8.16-.77-.6-1.69-1.06-2.33-1.77-1.46-1.61-2.8-3.34-4.73-5.68.48,0-.17.1-.78-.02-2.82-.54-10.95-9.56-10.83-12.39.08-2.01-.52-3.51-1.67-5.01-.59-.77-1.05-1.7-1.35-2.63-.19-.59-.27-1.51.06-1.94,2.49-3.24-.42-7.47,2-10.67,1.59-2.1,3-4.43,4.92-6.16,2.44-2.2,5.43-3.76,7.97-5.86,2.15-1.77,4.19-1.55,6.48-.6,1.53.64,3.17,1.03,4.71,1.66,1.88.77,3.61.82,4.98-.85,1.25-1.53,2.97-1.96,4.46-1.13,3.23,1.79,7,3.36,9.2,6.11,3.65,4.55,8.1,7.95,12.63,11.38,1.44,1.09,2.81,2.27,4.34,3.21,1.49.93,3.14,1.61,4.93,2.51,4.66-5.91,11.36-9.22,15.1-15.52.25-.42.6-.87,1.01-1.08,6.04-3.03,9.6-8.5,13.65-13.54,1.2-1.5,3.25-2.28,4.73-3.59,4.32-3.81,9.69-5.84,15.02-6.74,3.97-.67,8.43.94,12.56,1.97,3.69.92,6.76,2.92,7.13,7.55,4.81-.55,6.21,2.31,7.22,6.09,1.35,5.05,2,10.07,1.21,15.24-.62,4.07-2.24,5.98-5.89,7.08-.79,6.63-4.15,11.62-10.02,14.95-1.64.93-2.76,2.12-3.84,4.02-1.78,3.14-5.11,5.46-7.94,7.94-1.48,1.3-3.32,2.17-4.95,3.31-.64.45-1.57,1.08-1.61,1.68-.17,2.36-1.38,3.63-3.54,4.25-.29.08-.68.34-.75.6-1.63,5.92-7.85,8.39-10.33,13.75-.75,1.62-2.8,2.68-4.36,3.86-1.18.89-2.61,1.44-3.78,2.34-2.61,2.01-2.58,2.06-6.74.87Z"></path>
  <path d="M654.1,176.45c1.38,1.33,2.14,3.08-.41,5.24-1,.85-.99,2.91-1.41,4.43-.34,1.21-.27,2.78-1.03,3.56-1.37,1.39-3.32,2.25-2.71,4.73-2.86,2.46-5.66,4.99-8.61,7.34-.85.68-2.08.99-3.18,1.25-6.3,1.46-12.2,5.33-19.09,3.3-1.71-.5-3.39-1.16-5.05-1.81-.6-.24-1.14-1.01-1.67-.98-5.19.35-7.5-4.04-11.11-6.35-3.32-2.12-4.56-4.65-5.03-8.25-.17-1.31-1.65-2.43-2.47-3.68-2.11-3.22-3.03-6.43-3.02-10.59.01-5.35,2.86-9.34,3.92-13.96,1.25-5.45,4.98-8.2,8.57-10.89,7.19-5.4,15.21-9.24,24.75-7.43.95.18,2.01.15,2.97-.05,2.15-.45,3.94.01,5.42,1.66.22.25.47.56.76.63,5.4,1.27,8.1,6.6,12.98,8.68.82.35,1.71,1.21,1.98,2.03,1.73,5.35,3.46,10.72,4.82,16.18.32,1.29-.75,2.94-1.35,4.96Z"></path>
  <path d="M303.12,191.65c1.19,6.4-3.95,8.53-7.53,11.51-1.41,1.17-3.25,1.84-4.85,3.02-3.3,2.43-7.68,2.88-11.31.96-2.2-1.17-3.8-1.09-5.98-.77-2.18.33-4.71.29-6.7-.54-2.6-1.08-4.63-3.86-7.25-4.49-3.53-.85-3.96-3.61-5.43-5.86-1.09-1.67-2.38-3.19-3.52-4.83-.87-1.25-1.15-2.36-.47-4.09.57-1.45-.28-3.47-.51-5.23-.22-1.68.3-3.29-1.63-4.77-2.23-1.72-1.24-4.4,1.51-5.12,1.06-.28,2.18-.35,3.34-.52-.21-.58-.25-1.03-.4-1.07-1.15-.3-2.9.65-3.22-1.37-.32-2.02,1.5-2.47,2.79-2.95.97-.36,2.18-.07,3.54-.07-1.47-1.18-2.79-2.24-4.05-3.26,1.64-3.14,2.32-5.98,4.11-7.57,6.36-5.66,13.6-9.78,22.45-10.04,1.14-.03,2.3.22,3.43.44,1.9.37,3.77.91,5.67,1.2,2.74.41,4.99,1.51,6.86,3.64,1.38,1.57,2.95,3.05,4.67,4.22,2.83,1.92,5.24,4.03,6,7.56.2.95.59,1.96,1.18,2.71,3.57,4.52,3.87,9.63,2.9,15.01-.12.65-.43,1.39-.25,1.96,1.54,4.99-1.36,7.72-5.35,10.33Z"></path>
</svg><style>@media (prefers-color-scheme: light) { :root { filter: none; } }
@media (prefers-color-scheme: dark) { :root { filter: invert(100%); } }
</style></svg>